<svg width="111" height="84" viewBox="0 0 111 84" fill="none" xmlns="http://www.w3.org/2000/svg">
<g clip-path="url(#clip0_4_82)">
<path d="M103.581 61.3744C100.875 59.119 95.7757 56.2437 90.3416 51.6789L88.3574 57.1593C88.0222 58.0927 86.9918 58.58 86.0594 58.2436C85.9613 58.2018 85.8734 58.1658 85.7913 58.1195C85.0423 57.6972 84.6811 56.7769 84.9849 55.9475L87.0377 50.2489C87.2626 49.632 87.0521 48.756 86.5846 48.2896C86.3126 48.0281 86.0567 47.7621 85.7906 47.4903C85.3288 47.0136 84.7748 47.134 84.5498 47.7509L83.5141 50.6287C83.1789 51.5621 82.1486 52.0495 81.2161 51.7131C81.118 51.6713 81.0302 51.6353 80.9481 51.589C80.199 51.1667 79.8378 50.2464 80.1416 49.417L81.8522 44.6883C82.0829 44.0612 81.9218 43.1454 81.5151 42.6187C81.2323 42.2563 80.9449 41.878 80.6576 41.4996C80.267 40.9684 79.7739 41.0284 79.5534 41.6614L78.6651 44.1085C78.3299 45.0419 77.2995 45.5293 76.3671 45.1929C76.269 45.1511 76.1811 45.1151 76.099 45.0688C75.35 44.6465 74.9888 43.7261 75.2984 42.8864L77.1134 37.8516C77.3383 37.2347 77.2484 36.2644 76.9289 35.6786C76.6287 35.1307 76.3298 34.5565 76.0309 33.9823C75.7274 33.392 75.31 33.4136 75.0953 34.0363L73.8174 37.5619C73.4822 38.4953 72.4518 38.9827 71.5251 38.636C71.4212 38.6045 71.3392 38.5582 71.2571 38.5119C70.508 38.0896 70.1468 37.1693 70.4564 36.3296L73.6166 27.5772C73.5107 27.0442 73.4196 26.533 73.3509 26.1022C72.8641 22.447 71.6412 15.6048 69.095 12.6817C66.4236 9.62043 62.4 10.5297 60.5735 12.4343C59.6573 13.3918 59.1159 15.5341 58.8577 16.8355C58.7027 17.6406 58.6202 18.5812 58.8179 19.504C59.0868 20.8051 58.8606 21.8811 57.557 22.1333C54.5081 22.7266 48.9519 23.502 43.6121 22.6416C33.0993 20.9605 34.0685 15.6516 34.0685 15.6516C34.0685 15.6516 35.6471 8.31986 33.8322 4.33518C33.2793 3.13091 31.4887 1.79682 30.2202 1.43325C29.7681 1.30006 29.3225 1.25163 28.8755 1.22952C27.3015 5.64296 24.8663 17.0489 34.4792 30.8663C46.9503 48.7833 80.1083 69.6551 86.3579 73.4897C86.921 73.8342 86.8736 73.9427 86.2573 73.717C81.7093 72.0723 64.2349 65.3709 49.315 54.3627C30.9037 40.7909 15.9527 24.8834 20.1947 6.22032C19.896 6.51165 19.619 6.78822 19.3812 7.01923C17.2558 8.99878 15.6421 10.212 12.5504 15.379C11.8574 16.5163 10.4046 17.9961 9.38266 18.8533C8.16322 19.8696 6.57711 21.4906 5.18414 23.8019C3.79117 26.1132 2.67644 28.1217 1.9021 29.5242C1.26621 30.6802 1.10628 32.6725 1.77275 33.8191C2.24422 34.6393 2.90488 35.5798 3.79123 36.4311C4.74814 37.3492 6.18801 38.8507 7.08978 39.8189C7.47525 40.239 7.96011 40.6747 8.53538 41.0937C9.61537 41.8649 11.0461 42.4687 11.5373 42.7727C12.0228 43.087 12.289 43.5751 12.1217 43.873C11.9544 44.1708 12.4214 44.7586 13.1601 45.1751C13.8989 45.5917 14.8986 45.7361 15.3789 45.5065C15.8591 45.2769 16.5613 45.2536 16.9512 45.4735C17.3309 45.6875 17.4701 46.1852 17.2566 46.5652C17.0432 46.9452 17.4287 47.5818 18.1264 47.9752C18.8242 48.3685 19.7681 48.468 20.2349 48.1903C20.7119 47.9183 21.3788 47.8616 21.7379 48.0641C22.097 48.2665 22.4152 48.8786 22.4512 49.4399C22.4873 50.0011 23.0209 50.7347 23.6468 51.0876C24.2727 51.4405 25.1493 51.5155 25.6091 51.2743C26.0585 51.0274 26.6229 51.3456 26.8712 51.9859C27.1194 52.6262 27.9872 53.5347 28.8286 54.0091C29.67 54.4835 30.5941 54.6664 30.8903 54.4277C31.1922 54.1788 31.7719 54.1811 32.2131 54.4298C32.6441 54.6728 33.0437 55.2362 33.1169 55.6831C33.1798 56.1243 33.952 56.7219 34.8402 56.9928C35.7283 57.2636 36.8203 57.2437 37.2781 56.9339C37.7359 56.624 38.2336 56.7964 38.3818 57.3263C38.53 57.8561 39.2355 58.7407 39.9564 59.3094C40.6773 59.8781 41.7065 60.2826 42.2638 60.2046C42.8049 60.1311 43.5289 60.3094 43.8785 60.6011C44.2177 60.8871 44.3397 61.4156 44.1378 61.775C43.9358 62.1345 44.4355 62.8083 45.2461 63.2654C46.067 63.7282 47.0693 64.0364 47.4893 63.9621C47.9093 63.8879 48.5544 64.0623 48.9245 64.3656C49.2945 64.6689 49.4786 65.1108 49.346 65.347C49.2133 65.5832 49.5141 66.0097 50.0169 66.2932C50.5197 66.5767 51.3552 66.845 51.865 66.8755C52.3851 66.9117 53.0129 67.117 53.2714 67.3303C53.5298 67.5436 53.6274 67.9232 53.4774 68.1902C53.3274 68.4572 54.14 69.1993 55.2995 69.853L55.4739 69.9514C56.6334 70.6051 57.746 70.8132 57.9594 70.4332C58.1729 70.0532 58.6801 69.92 59.0905 70.1514C59.501 70.3828 59.6505 70.8863 59.437 71.2663C59.2178 71.6565 59.8656 72.4274 60.8711 72.9944C61.8767 73.5613 63.1676 74.0052 63.7588 73.9869C64.3398 73.9629 64.9862 74.3273 65.1954 74.7969C65.4045 75.2664 66.4941 76.1647 67.6228 76.801C68.7515 77.4374 70.0155 77.7849 70.4464 77.5951C70.8728 77.3893 71.614 77.3204 72.0834 77.4228C72.5573 77.5412 72.9473 77.9774 72.9519 78.4263C72.9564 78.8751 73.9716 79.5692 75.2375 79.9854L75.6165 80.1044C76.8722 80.5148 78.2143 80.5548 78.6175 80.1737C79.015 79.8028 79.5742 79.5771 79.8698 79.6762C80.1654 79.7752 80.4727 80.2865 80.5581 80.808C80.6434 81.3294 81.4361 81.9386 82.3326 82.1466C83.2233 82.3648 84.3455 82.0508 84.8493 81.4424C85.3532 80.834 86.2368 80.4397 86.8319 80.5589C87.4328 80.6677 87.699 81.1559 87.4278 81.6386C87.1567 82.1213 87.9942 82.6746 89.3126 82.8771C90.6311 83.0795 91.9071 82.8523 92.1783 82.3696C92.4494 81.887 93.0194 81.5457 93.4696 81.6102C93.9095 81.6689 94.3469 81.9966 94.4412 82.3338C94.5355 82.671 95.2685 82.8814 96.0739 82.7945C96.8792 82.7077 97.7865 82.3673 98.1026 82.0452C98.4084 81.7173 99.7511 81.4195 101.031 81.1134C103.687 80.4742 107.847 78.6006 109.415 73.1155C111.823 64.7639 109.31 66.1596 103.581 61.3744Z" fill="url(#paint0_linear_4_82)"/>
</g>
<defs>
<linearGradient id="paint0_linear_4_82" x1="75.6814" y1="-23.3814" x2="75.6431" y2="71.1528" gradientUnits="userSpaceOnUse">
<stop stop-color="white"/>
<stop offset="1" stop-color="#5386E4"/>
</linearGradient>
<clipPath id="clip0_4_82">
<rect width="111" height="84" fill="white"/>
</clipPath>
</defs>
</svg>
